<?xml version="1.0" encoding="utf-8"?>
<!-- Generator: Adobe Illustrator 24.0.2, SVG Export Plug-In . SVG Version: 6.00 Build 0)  -->
<svg version="1.2" baseProfile="tiny" id="Слой_1"
	 xmlns="http://www.w3.org/2000/svg" xmlns:xlink="http://www.w3.org/1999/xlink" x="0px" y="0px" viewBox="0 0 512 512"
	 xml:space="preserve">
<path fill="#7C7C7C" d="M427,0H85C53,0,27,26,27,58v370c0,16.5,13.5,30,30,30h131.3c5.5,0,10-4.5,10-10s-4.5-10-10-10H57
	c-5.5,0-10-4.5-10-10V58c0-21,17-38,38-38h298.2C374.4,30.2,369,43.5,369,58v322.3c0,9.2-7.5,16.7-16.7,16.7
	c-7.2,0-13.6-4.6-15.9-11.4l-15.1-45.2c-4.3-12.8-16.2-21.3-29.6-21.3c-17.2,0-31.2,14-31.2,31.2v7.8h-51.8c-5.5,0-10,4.5-10,10
	s4.5,10,10,10h51.8v49.8c0,14.8,2.9,29.2,8.6,42.8l14.7,35.3c1.6,3.8,5.3,6.2,9.2,6.2c1.3,0,2.6-0.2,3.8-0.8c5.1-2.1,7.5-8,5.4-13.1
	L287.5,463c-4.7-11.2-7-23-7-35.1v-77.5c0-6.2,5-11.2,11.2-11.2c4.8,0,9.1,3.1,10.6,7.7l15.1,45.2c5,15,19,25.1,34.8,25.1
	c20.3,0,36.7-16.5,36.7-36.7V208.8l13.4,13.3c23.8,23.8,37,55.5,37,89.1v106.3c0,27.5-6.2,55.2-18,80.1c-2.4,5-0.2,11,4.8,13.3
	c5,2.3,11,0.2,13.3-4.8c13.1-27.5,20-58.2,20-88.7V311.3c0-39-15.2-75.7-42.8-103.3L389,180.6V171h66c16.5,0,30-13.5,30-30V58
	C485,26,459,0,427,0z M465,141c0,5.5-4.5,10-10,10h-66V58c0-21,17-38,38-38s38,17,38,38V141z"/>
<path fill="#7C7C7C" d="M232,438c-2.6,0-5.2,1.1-7.1,2.9c-1.9,1.9-2.9,4.4-2.9,7.1c0,2.6,1.1,5.2,2.9,7.1s4.4,2.9,7.1,2.9
	c2.6,0,5.2-1.1,7.1-2.9c1.9-1.9,2.9-4.4,2.9-7.1c0-2.6-1.1-5.2-2.9-7.1C237.2,439.1,234.6,438,232,438z"/>
<path fill="#7C7C7C" d="M164.7,74c0-11-9-20-20-20h-44c-11,0-20,9-20,20v44c0,11,9,20,20,20h44c11,0,20-9,20-20V74z M144.7,118h-44
	V74h44V118L144.7,118z"/>
<path fill="#7C7C7C" d="M164.7,194c0-11-9-20-20-20h-44c-11,0-20,9-20,20v44c0,11,9,20,20,20h44c11,0,20-9,20-20V194z M144.7,238
	h-44v-44h44V238L144.7,238z"/>
<path fill="#7C7C7C" d="M144.7,294h-44c-11,0-20,9-20,20v44c0,11,9,20,20,20h44c11,0,20-9,20-20v-44C164.7,303,155.7,294,144.7,294z
	 M144.7,358h-44v-44h44V358L144.7,358z"/>
<path fill="#7C7C7C" d="M323.3,138c5.5,0,10-4.5,10-10c0-5.5-4.5-10-10-10h-68.9c-5.5,0-10,4.5-10,10c0,5.5,4.5,10,10,10H323.3z"/>
<path fill="#7C7C7C" d="M208.7,138c2.6,0,5.2-1.1,7.1-2.9s2.9-4.4,2.9-7.1c0-2.6-1.1-5.2-2.9-7.1s-4.4-2.9-7.1-2.9
	c-2.6,0-5.2,1.1-7.1,2.9c-1.9,1.9-2.9,4.4-2.9,7.1c0,2.6,1.1,5.2,2.9,7.1C203.5,136.9,206,138,208.7,138z"/>
<path fill="#7C7C7C" d="M208.7,258h114.7c5.5,0,10-4.5,10-10s-4.5-10-10-10H208.7c-5.5,0-10,4.5-10,10S203.1,258,208.7,258z"/>
</svg>
